The Ghost aka Ryeong (2004)

The teenager Min Ji-won is suffering from amnesia and being haunted by weird visions. When she meets her former high school friend Oh Yu-jeong, she receives a picture of her high school group of friends: Kim Eun-seo, who had recently died; Shin Mi-kyeong, who is in the hospital and Eun-jeong. Ji-won questions who took the picture, and when she visits her former friends, she recalls Han Su-in, a girl that was badly treated and humiliated by their group, disclosing her past and the fate of Su-in and finding a scary hidden truth.
 
Format                           : AVI
Format/Info                      : Audio Video Interleave
File size                        : 700 MiB
Duration                         : 1h 35mn
Overall bit rate                 : 1 030 Kbps
Writing application              : VirtualDubMod 1.5.4.1 (build 2178/release)
Writing library                  : VirtualDubMod build 2178/release
Language                         : Korean
Subtitles                        : English(*.srt)
Genre                            : Horror

Video
ID                               : 0
Format                           : MPEG-4 Visual
Format profile                   : Advanced Simple@L5
Format settings, BVOP            : No
Format settings, QPel            : No
Format settings, GMC             : No warppoints
Format settings, Matrix          : Custom
Codec ID                         : XVID
Codec ID/Hint                    : XviD
Duration                         : 1h 35mn
Bit rate                         : 902 Kbps
Width                            : 640 pixels
Height                           : 352 pixels
Display aspect ratio             : 16:9
Frame rate                       : 23.976 fps
Color space                      : YUV
Chroma subsampling               : 4:2:0
Bit depth                        : 8 bits
Scan type                        : Progressive
Bits/(Pixel*Frame)               : 0.167
Stream size                      : 614 MiB (88%)
Writing library                  : XviD 1.2.1 (UTC 2008-12-04)

Audio
ID                               : 1
Format                           : MPEG Audio
Format version                   : Version 1
Format profile                   : Layer 3
Mode                             : Joint stereo
Mode extension                   : MS Stereo
Codec ID                         : 55
Codec ID/Hint                    : MP3
Duration                         : 1h 35mn
Bit rate mode                    : Variable
Bit rate                         : 115 Kbps
Nominal bit rate                 : 128 Kbps
Channel(s)                       : 2 channels
Sampling rate                    : 48.0 KHz
Stream size                      : 77.9 MiB (11%)
Alignment                        : Aligned on interleaves
Interleave, duration             : 24 ms (0.58 video frame)
Interleave, preload duration     : 160 ms
Writing library                  : LAME3.98r
Encoding settings                : -m j -V 4 -q 2 -lowpass 17 --abr 128
 
http://leetleech.org/images/36092379083197184682.png 
http://leetleech.org/images/82137437886889503951.png 
http://leetleech.org/images/85339753851296538734.png 
http://leetleech.org/images/39829640594534375095.png 
http://leetleech.org/images/96414725438077918911.png 
http://leetleech.org/images/50617360630041686756.png
 
http://www.youtube.com/watch?v=sQ4bwklkfHY
 
http://www.imdb.com/title/tt0410537/
 
http://leetleech.org/images/97913465899887526311.png